# xmcd CD database file
#
# Track frame offsets:
#	150
#	22505
#	40816
#	55256
#	71277
#	104704
#	119147
#	134652
#	161482
#	179889
#	199089
#	220914
#	235539
#	264789
#
# Disc length: 3751 seconds
#
# Revision: 0
# Processed by: cddbd v1.5.1PL0 Copyright (c) Steve Scherf et al.
# Submitted via: CDex 1.51
#
DISCID=c80ea50e
DTITLE=Scottie Blinn - 9 Scorchin' Years The Raw Sound Of
DYEAR=2001
DGENRE=Blues
TTITLE0=Sidetracked
TTITLE1=Bad, Bad World
TTITLE2=Stealin' Me Blind
TTITLE3=Blond Bruce
TTITLE4=She's Gone
TTITLE5=Drinkin' Triple
TTITLE6=Keep On Tryin'
TTITLE7=Japengo
TTITLE8=Can I Walk You Home
TTITLE9=Rockula
TTITLE10=Bapa Boom
TTITLE11=Slicker Than Grease
TTITLE12=Goin' Down
TTITLE13=Mr. Moto
EXTD=YEAR: 2001
EXTT0=
EXTT1=
EXTT2=
EXTT3=
EXTT4=
EXTT5=
EXTT6=
EXTT7=
EXTT8=
EXTT9=
EXTT10=
EXTT11=
EXTT12=
EXTT13=
PLAYORDER=
